<svg xmlns="http://www.w3.org/2000/svg" width="23.18" height="20.503" viewBox="0 0 23.18 20.503">
  <g id="Group_4" data-name="Group 4" transform="translate(20926.082 24928.365)">
    <path id="Path_15" data-name="Path 15" d="M-20926.082-24927.865h4.5l2.516,12.236" fill="none" stroke="#fff" stroke-width="1"/>
    <path id="Path_16" data-name="Path 16" d="M-20875.109-24900.934h17.412l-2.42,9.625h-12.914a2.072,2.072,0,0,0-1.449,1.887,1.321,1.321,0,0,0,1.449,1.307h12.914" transform="translate(-45.846 -24.223)" fill="none" stroke="#fff" stroke-width="1"/>
    <g id="Path_22" data-name="Path 22" transform="translate(-20919.334 -24911.383)" fill="none">
      <path d="M1.76,0A1.772,1.772,0,0,1,3.045.557a1.736,1.736,0,0,1,.476,1.2A1.76,1.76,0,1,1,1.76,0Z" stroke="none"/>
      <path d="M 1.760157823562622 0.9999978542327881 C 1.341007709503174 0.9999978542327881 0.9999978542327881 1.341007709503174 0.9999978542327881 1.760157823562622 C 0.9999978542327881 2.17930793762207 1.341007709503174 2.520317792892456 1.760157823562622 2.520317792892456 C 2.17930793762207 2.520317792892456 2.520317792892456 2.17930793762207 2.520317792892456 1.760157823562622 C 2.520317792892456 1.567317843437195 2.448147773742676 1.377877712249756 2.326457977294922 1.252567768096924 C 2.164077758789062 1.084977865219116 1.97354781627655 0.9999978542327881 1.760157823562622 0.9999978542327881 M 1.760157823562622 -2.145767211914062e-06 C 2.255927801132202 -2.145767211914062e-06 2.703837871551514 0.204967737197876 3.044647693634033 0.5567178726196289 C 3.33110785484314 0.8516879081726074 3.520317792892456 1.283827781677246 3.520317792892456 1.760157823562622 C 3.520317792892456 2.7322678565979 2.7322678565979 3.520317792892456 1.760157823562622 3.520317792892456 C 0.7880477905273438 3.520317792892456 -2.145767211914062e-06 2.7322678565979 -2.145767211914062e-06 1.760157823562622 C -2.145767211914062e-06 0.7880477905273438 0.7880477905273438 -2.145767211914062e-06 1.760157823562622 -2.145767211914062e-06 Z" stroke="none" fill="#fff"/>
    </g>
    <g id="Path_21" data-name="Path 21" transform="translate(-20909.178 -24911.383)" fill="none">
      <path d="M1.76,0a1.792,1.792,0,0,1,.674.134A1.761,1.761,0,1,1,1.76,0Z" stroke="none"/>
      <path d="M 1.760157823562622 0.9999978542327881 C 1.341007709503174 0.9999978542327881 0.9999978542327881 1.341007709503174 0.9999978542327881 1.760157823562622 C 0.9999978542327881 2.17930793762207 1.341007709503174 2.520317792892456 1.760157823562622 2.520317792892456 C 2.17930793762207 2.520317792892456 2.520317792892456 2.17930793762207 2.520317792892456 1.760157823562622 C 2.520317792892456 1.404767751693726 2.285297870635986 1.150057792663574 2.065627813339233 1.063277721405029 C 1.95528781414032 1.01951789855957 1.861077785491943 0.9999978542327881 1.760157823562622 0.9999978542327881 M 1.760157823562622 -2.145767211914062e-06 C 1.98860776424408 -2.145767211914062e-06 2.206887722015381 0.0435178279876709 2.434337854385376 0.1337378025054932 C 3.059127807617188 0.3805477619171143 3.520317792892456 1.016497850418091 3.520317792892456 1.760157823562622 C 3.520317792892456 2.7322678565979 2.7322678565979 3.520317792892456 1.760157823562622 3.520317792892456 C 0.7880477905273438 3.520317792892456 -2.145767211914062e-06 2.7322678565979 -2.145767211914062e-06 1.760157823562622 C -2.145767211914062e-06 0.7880477905273438 0.7880477905273438 -2.145767211914062e-06 1.760157823562622 -2.145767211914062e-06 Z" stroke="none" fill="#fff"/>
    </g>
  </g>
</svg>
